<svg xmlns="http://www.w3.org/2000/svg" xmlns:xlink="http://www.w3.org/1999/xlink" version="1.1" x="0px" y="0px" viewBox="0 0 1000 1250" style="enable-background:new 0 0 1000 1000;" xml:space="preserve"><g><path d="M219.1950378,836.843811c0.5492859,10.8547974,4.6284332,20.1959839,9.8884583,29.2175903   c-9.1720581-1.5516968-18.3788147-9.8394775-25.2883759-15.4337158   c-10.0335541-8.1233521-19.4088898-17.1430054-27.2332306-27.4345093   c-13.1366577-17.2788696-16.4297791-36.2597656-19.7224274-57.3673096   c-6.8220215,5.8626099-10.032196,19.4355469-7.6536865,35.2950439   c-31.1586151-42.1497803-39.5931625-87.6740723-30.9314499-138.8214111   c-21.8440323,26.9669189-35.3257294,55.3834839-33.2363586,90.7797241   c-25.3138313-63.0244141-27.4837494-126.7924805-7.0335083-192.2036743   c-16.1991043,17.7249756-28.8573799,35.7564697-40.9159012,56.4884644   c-0.8860664-23.7735596,4.3352928-47.947937,9.5202332-71.0253906   c5.1456528-22.9025269,11.6966782-45.4838562,19.4783478-67.6280518   c7.5742798-21.5541077,16.3147049-42.6914673,26.016098-63.3733215   c5.0008011-10.6609497,10.2573318-21.2005615,15.7418594-31.6208191   c3.8003769-7.220459,12.9624557-17.9454041,13.4009476-26.0536194   C32.5128136,334.8998108-12.458334,236.9789276,17.1791649,152.83638   C43.8966255,76.9839478,127.5098648,23.0954704,208.0636292,41.8706703   c22.451889,5.2330284,43.5725098,16.0090218,60.7698364,31.3911018   c19.0293579,17.0206985,29.6647034,37.5613556,38.849884,60.9634323   c47.7818298-24.2343063,98.9052429-35.4036789,153.431488-37.7918396   c-7.8249817,9.1701889-14.602478,17.6853943-19.3854065,28.1402512   c-38.6003418,6.6792221-75.9127502,16.1988907-111.3671265,33.2186356   c-6.4962769,3.1185455-15.1140747,5.7744904-18.6582031,12.5116272   c-3.6429443,6.9250183-3.3138428,15.3997955-6.7502747,22.4232788   c-6.4277039,13.1372681-23.3004456,17.8042603-35.3309631,24.3619232   c8.7995605,3.8735504,17.3340759,6.6407623,25.8276978,13.4222565   c-20.2240601-2.2475128-38.3890991-2.0653992-56.8472443,5.7327881c9.7197113,3.3207397,17.9351959,6.8180389,26.2141876,13.69664   c-24.5348358,0.3966217-48.2500153-1.3865662-68.9216614,15.1678162   c11.5281677,1.2922974,22.0325165,2.7359009,32.3394318,9.1964722   c-63.1998901,69.304718-106.6259155,149.3274231-134.9088898,238.072876   c17.0095444-16.0539551,35.5569153-29.6620178,57.964325-40.50354   c-36.7354202,54.3223877-49.881134,114.2522583-53.4919434,178.40448   c10.9046326-11.0101318,20.8439331-21.3953857,32.7150726-30.6988525   c-3.6473236,53.7576904,9.0317993,107.0194092,40.2852783,151.2961426   c33.3391113,47.2316284,79.7509613,74.7828979,135.8996429,86.574707   c-34.7484436-28.7473145-71.894104-56.1139526-100.2986145-91.5098267   c-27.7335815-34.5597534-46.5142517-76.8163452-47.1110229-121.5926514   c-1.079834-81.017395,51.9172363-158.6755981,115.6481934-204.7439575   c15.8979187-11.4918823,34.4581909-24.9888,53.6733093-29.9439087c20.647522-5.3244934,40.1052551,2.4247131,54.538269,17.4292297   c14.1817932,14.7433472,24.049469,33.2150269,30.5559082,52.4873352   c6.5803833,19.4912415,12.9932861,43.2814331,7.8018799,63.7658081   c-5.0584717,19.960144-23.6169128,34.8774414-34.95047,51.5079346   c-12.0485535,17.6796875-22.0205078,36.7142334-29.8490906,56.6212769   c-9.0483704,23.0089722-17.2383118,46.322937-26.5622864,69.2376709   c-8.1664124,20.0699463-23.6679382,44.4395752-21.0536194,66.774353   c2.1433716,18.3112793,13.290863,37.5988159,22.5426941,53.2720947   c9.3030396,15.7600098,20.4238586,30.4417114,33.2050781,43.5463867   c25.6983337,26.3486328,59.2633362,48.1253662,94.6132202,58.8687134   c79.0968018,24.0387573,162.8952026-32.3330078,203.6400757-97.562561   c9.8780518-15.8140869,20.2241211-34.1183472,24.5330811-52.3974609   c5.6010742-23.760376-10.133728-49.0838013-18.5571899-70.5323486   c-16.9067383-43.0494385-29.8745728-90.807312-57.2354126-128.6463013   c-12.1034546-16.7387085-28.6817627-29.9943237-34.097168-50.7263184   c-4.9061279-18.7822876-0.5973511-38.3274841,4.8018799-56.5054932   c10.3458862-34.8321838,35.4076538-83.5414429,78.8967285-78.6689453   c20.2702026,2.2710266,39.843689,16.4746399,56.1541748,27.875885   c17.1030273,11.9553223,32.9793091,25.6469116,47.31427,40.8111572   c29.1022339,30.7855835,53.1695557,67.7355042,65.4852905,108.4875793   c12.4004517,41.0327759,11.684082,84.5281982-4.6450806,124.3597412   c-17.2331543,42.0368042-48.2340698,75.4763184-82.3262939,104.6137085   c-17.2359619,14.730957-35.0026855,28.8547363-52.5683594,43.1885376   c51.3025513-10.0125122,97.7358398-35.6610107,129.9446411-77.333252   c35.4813232-45.90625,51.1192017-102.5357666,47.6921387-160.1630859   c12.0982666,9.7703857,21.706665,19.8006592,32.2995605,30.0928345   c-3.6935425-63.3504639-17.1553345-122.6640015-52.7025146-177.5654907   c22.3425903,11.015686,40.5604858,24.3325806,56.9968262,40.5612793   c-28.4782104-88.2952576-71.3544312-168.5211792-133.7838135-238.5939026   c9.293396-6.3207092,19.6708374-7.494812,31.1221313-9.2033386c-18.4088135-16.299942-44.7237549-15.3903503-67.7941284-14.9875336   c8.1005859-7.4196625,16.515686-10.4442291,26.3711548-13.9684143   c-19.1482544-7.3895416-37.3887939-8.5521088-58.0878906-5.0818481c8.9025269-6.4168549,16.9082642-9.8933411,26.3447876-13.03685   c-5.7681274-3.8303986-11.715332-7.4043732-17.8935547-10.535614c-4.4634399-2.2621918-10.2832031-3.7515259-13.9257812-7.2845917   c-7.3306885-7.11026-8.9936523-23.6614685-11.8778076-33.1407623   c-69.8582764-38.0046692-144.7668457-51.3226395-223.6911011-45.1803436   c7.2848511-18.2728729,40.0667725-45.2592773,78.9934692-42.4795456   c-12.7018433,4.2986603-22.9603271,11.885231-32.5146179,23.6912689   c30.8296814-8.8476944,62.8387756-5.3907242,93.8629456,0.4765854c30.6313477,5.7930374,60.1419678,16.1841278,87.795105,30.561676   c3.1773682-3.5384064,3.9146729-10.0900574,5.7821655-14.4220276c1.8408813-4.2702484,3.8599854-8.4665222,6.0758057-12.5552673   c5.0216675-9.2661133,11.0502319-17.996582,18.1171875-25.8236313   c13.2136841-14.6349411,29.8884888-25.6723518,48.2628784-32.7312737   c39.4955444-15.1731224,83.9067383-13.3195381,122.3339844,4.0990372   c78.4961548,35.5812874,121.8783569,127.5928345,91.6785889,209.7243347   c-8.1569214,22.1834717-21.1849976,42.5837708-38.2036133,59.0177612   c-19.2662354,18.6043396-41.3347778,28.6393433-66.5167847,36.6849365   c43.4596558,81.0446472,77.2550659,165.069519,83.8438721,258.0328979   c-11.0999146-20.6883545-24.6399536-39.3289795-42.1535645-55.2246094   c11.0386353,30.9060059,15.7282104,63.7772827,14.5270386,96.5426025   c-1.1652222,31.7845459-5.9586792,65.8555298-20.8690186,94.3439941   c2.6033325-33.2180786-9.6074219-60.9867554-31.6760864-87.5921021   c8.1307373,50.9240112-2.0236816,95.6907959-31.701355,135.7307129   c2.8473511-12.6598511-0.3806152-24.0120239-7.0915527-35.1795654   c-2.0499268,49.9508057-34.3816528,77.8589478-72.5454712,101.6643066   c4.3224487-9.4915771,8.9362793-18.7424927,10.7388306-30.9412842   c-27.3459473,32.1693115-65.7558594,53.9439087-106.4389648,64.262146   c-8.4978027,2.1552124-19.6685791,2.15625-27.4356079,6.124939c-8.3855591,4.284668-15.4896851,13.4535522-23.1696777,19.0547485   c-15.6047363,11.3808594-33.0233765,20.1439819-51.4304199,25.9812622   c-41.3245239,13.1049194-89.913208,13.9714966-132.0026855,4.2558594   c-19.6737366-4.5413208-38.6494141-12.0617676-55.8136597-22.7336426   c-8.023468-4.9886475-15.6342468-10.6385498-22.7532043-16.848999c-3.6296997-3.1665649-7.1436462-7.5343018-11.5195923-9.6983032   c-4.4265442-2.1890869-9.9238892-2.3599854-14.7259827-3.3254395   C290.5812378,893.7477417,248.8462372,871.984436,219.1950378,836.843811z M378.8248596,545.6837769   c-2.714386-27.9873657-19.8191528-47.5053101-40.262085-46.3768005   c-22.0076294,1.2149048-40.0456848,22.9234314-40.5506897,48.8021545   C318.4042664,502.1448669,364.1758728,505.6391602,378.8248596,545.6837769z M618.7661743,548.5327759   c16.5874634-45.1213074,60.7449341-44.2270813,81.0412598-1.9489746   c1.3058472-21.9295044-18.0101929-45.6591187-38.2489014-46.9884949   C639.2788696,498.1319275,621.4609375,517.8662109,618.7661743,548.5327759z M314.2851562,552.8496704   c2.94104,28.909668,46.7883606,30.0784302,53.6529846,2.7748413   C352.7147827,574.1686401,330.2227478,575.3278198,314.2851562,552.8496704z M629.949585,554.5239258   c5.1804199,14.9036865,17.0263062,22.8988647,29.8702393,21.4115601   c11.7759399-1.3636475,23.4263306-11.8224487,24.3901367-21.8956299   C668.994812,573.7123413,648.007019,576.1882935,629.949585,554.5239258z"/></g><text x="0" y="1015" fill="#000000" font-size="5px" font-weight="bold" font-family="'Helvetica Neue', Helvetica, Arial-Unicode, Arial, Sans-serif">Created by Brad</text><text x="0" y="1020" fill="#000000" font-size="5px" font-weight="bold" font-family="'Helvetica Neue', Helvetica, Arial-Unicode, Arial, Sans-serif">from the Noun Project</text></svg>